<svg width="16" height="15" viewBox="0 0 16 15" fill="none" xmlns="http://www.w3.org/2000/svg">
<path d="M14.3538 12.7934L11.2244 9.86017C12.1314 8.83929 12.5837 7.52989 12.4872 6.20435C12.3906 4.87881 11.7527 3.63918 10.7061 2.74335C9.65951 1.84752 8.2848 1.36446 6.86796 1.39464C5.45113 1.42483 4.10125 1.96595 3.09913 2.90543C2.09702 3.84491 1.51983 5.11042 1.48763 6.43871C1.45543 7.76699 1.9707 9.05578 2.92625 10.037C3.88181 11.0182 5.20407 11.6162 6.61798 11.7067C8.03189 11.7972 9.42859 11.3732 10.5175 10.5229L13.6463 13.4567C13.6927 13.5002 13.7479 13.5348 13.8086 13.5583C13.8693 13.5819 13.9343 13.594 14 13.594C14.0657 13.594 14.1308 13.5819 14.1915 13.5583C14.2522 13.5348 14.3073 13.5002 14.3538 13.4567C14.4002 13.4131 14.4371 13.3614 14.4622 13.3045C14.4874 13.2476 14.5003 13.1866 14.5003 13.125C14.5003 13.0634 14.4874 13.0024 14.4622 12.9455C14.4371 12.8886 14.4002 12.8369 14.3538 12.7934ZM2.50002 6.56251C2.50002 5.72812 2.76394 4.91247 3.25841 4.2187C3.75287 3.52493 4.45568 2.9842 5.27795 2.66489C6.10021 2.34559 7.00501 2.26204 7.87793 2.42482C8.75084 2.58761 9.55266 2.9894 10.182 3.5794C10.8113 4.16941 11.2399 4.92112 11.4136 5.73947C11.5872 6.55783 11.4981 7.40608 11.1575 8.17696C10.8169 8.94783 10.2401 9.60671 9.50009 10.0703C8.76007 10.5338 7.89004 10.7813 7.00002 10.7813C5.80695 10.78 4.66313 10.3351 3.8195 9.54425C2.97587 8.75335 2.50134 7.68101 2.50002 6.56251Z" fill="#343330"/>
</svg>
